<svg width="2400" height="1600" viewBox="0 0 2400 1600" fill="none" xmlns="http://www.w3.org/2000/svg">
<rect width="2400" height="1600" fill="#F8F9FA"/>
<path d="M1126.34 478.614L491.419 848.186C485.253 851.776 480.146 856.933 476.615 863.136C473.084 869.338 471.256 876.365 471.316 883.503C471.376 890.641 473.322 897.635 476.957 903.778C480.591 909.92 485.784 914.991 492.01 918.476L1269.23 1353.69C1278.63 1358.95 1289.19 1361.75 1299.96 1361.84C1310.72 1361.93 1321.34 1359.3 1330.82 1354.2L1927.94 1032.85C1935.55 1028.76 1941.94 1022.7 1946.44 1015.31C1950.95 1007.93 1953.4 999.471 1953.55 990.819C1953.71 982.168 1951.55 973.631 1947.31 966.089C1943.07 958.547 1936.9 952.271 1929.43 947.908L1126.34 478.614Z" fill="#EAECF0"/>
<path d="M687.625 735.621L609.15 781.246C609.15 781.246 613.521 847.871 693.846 837.548L838.628 758.197" fill="#A2A9B1"/>
<path d="M774.84 771.947C823.052 771.947 862.135 752.614 862.135 728.765C862.135 704.916 823.052 685.583 774.84 685.583C726.629 685.583 687.546 704.916 687.546 728.765C687.546 752.614 726.629 771.947 774.84 771.947Z" fill="#00A7E2"/>
<path d="M862.095 613.756V731.168C862.095 731.168 797.127 791.332 687.546 732.153V613.953" fill="#00A7E2"/>
<path d="M700.618 655.717C700.618 655.717 686.168 633.574 672.544 646.34C658.92 659.106 670.851 703.391 710.817 707.646V725.534C710.817 725.534 660.613 718.718 653.802 673.605C646.99 628.492 679.356 621.518 695.5 633.929" fill="#00A7E2"/>
<path d="M1194.74 770.017L1119.41 806.304C1116.57 807.667 1114.16 809.777 1112.43 812.41C1110.7 815.042 1109.72 818.096 1109.59 821.243C1109.47 824.391 1110.2 827.514 1111.72 830.275C1113.23 833.037 1115.47 835.333 1118.19 836.918L1296.76 941.131C1300.61 943.385 1305.19 944.061 1309.53 943.019C1313.88 941.976 1317.65 939.296 1320.07 935.536L1363.38 868.004" fill="#54595D"/>
<path d="M1023.57 997.394L727.158 841.212L681.876 870.762L1165.24 1135.53L1231.79 1091.99" fill="#A2A9B1"/>
<path d="M1279.08 1145.42L1088.52 1257.26C1088.52 1257.26 1134.78 1301.63 1188.65 1324.24L1374.13 1211.45" fill="#C8CCD1"/>
<path d="M1272.3 1115.44V1148.45L1374.13 1211.49L1496.31 1136.79V1108.66" fill="#00A7E2"/>
<path d="M1272.3 1115.44V1148.45L1374.13 1211.49L1496.31 1136.79V1108.66" fill="#54595D"/>
<path d="M1496.31 1108.66L1392.56 1046.57L1272.3 1115.44L1376.06 1178.52L1496.31 1108.66Z" fill="#A2A9B1"/>
<path d="M1397.83 1130.96C1395.14 1127.71 1392.86 1124.16 1391.02 1120.36C1390.59 1117.84 1396.73 1105.82 1397.87 1106.18C1401.99 1108.25 1405.85 1110.8 1409.37 1113.78" fill="#72777D"/>
<path d="M1398.93 1111.26C1399.17 1112.21 1395.55 1130.29 1397.83 1130.96C1402.66 1131.41 1407.53 1131.41 1412.36 1130.96C1413.27 1124.43 1413.83 1117.85 1414.01 1111.26" fill="#202122"/>
<path d="M1416.06 1088.17L1397.87 1093.25C1397.87 1093.69 1394.88 1110.08 1397.16 1112.52C1400.07 1114.59 1403.09 1116.48 1406.22 1118.19C1406.2 1123.92 1406.53 1129.65 1407.2 1135.33C1408.28 1135.54 1409.39 1135.54 1410.47 1135.33C1411.22 1129.38 1412.24 1117.29 1412.24 1117.29C1412.24 1117.29 1417.56 1115.44 1417.87 1113.78C1418.19 1112.13 1416.06 1088.17 1416.06 1088.17Z" fill="#72777D"/>
<path d="M1453.11 1216.34C1453.11 1216.34 1445.24 1206.29 1444.61 1203.1C1443.98 1199.91 1451.74 1184.94 1453.19 1185.37C1458.33 1187.96 1463.14 1191.14 1467.53 1194.87" fill="#72777D"/>
<path d="M1454.49 1191.68C1454.77 1192.86 1450.24 1215.32 1453.11 1216.34C1459.15 1216.9 1465.23 1216.9 1471.27 1216.34C1472.21 1216.34 1473.31 1191.68 1473.31 1191.68" fill="#202122"/>
<path d="M1475.91 1163.07L1453.19 1169.41C1453.19 1169.97 1449.45 1190.41 1452.29 1193.45C1455.12 1196.48 1463.78 1199.99 1463.59 1200.54C1463.56 1207.68 1463.97 1214.81 1464.81 1221.89C1466.11 1222.13 1467.44 1222.13 1468.75 1221.89C1469.65 1214.45 1470.95 1199.36 1470.95 1199.36C1470.95 1199.36 1477.61 1197.03 1477.96 1194.98C1478.31 1192.94 1475.91 1163.07 1475.91 1163.07Z" fill="#72777D"/>
<path d="M1604.59 595.396L1003.73 249.03C999.597 246.644 994.911 245.391 990.141 245.398C985.372 245.406 980.689 246.673 976.566 249.071C972.443 251.47 969.026 254.915 966.66 259.059C964.294 263.203 963.064 267.898 963.093 272.67V632.983C963.06 636.97 964.086 640.894 966.064 644.355C968.042 647.816 970.903 650.69 974.354 652.683L1614.83 1022.61C1617.04 1023.89 1619.55 1024.57 1622.1 1024.57C1624.66 1024.57 1627.17 1023.9 1629.38 1022.62C1631.59 1021.34 1633.43 1019.5 1634.7 1017.29C1635.98 1015.07 1636.65 1012.56 1636.64 1010V650.871C1636.64 639.622 1633.68 628.571 1628.05 618.832C1622.42 609.094 1614.33 601.01 1604.59 595.396Z" fill="#72777D"/>
<path d="M1003.81 276.256L1586.56 611.668C1592.79 615.253 1597.96 620.419 1601.55 626.646C1605.15 632.872 1607.04 639.937 1607.03 647.128V917.254C1607.03 919.84 1606.35 922.379 1605.05 924.618C1603.76 926.858 1601.9 928.718 1599.67 930.014C1597.43 931.311 1594.9 931.997 1592.31 932.005C1589.73 932.013 1587.19 931.342 1584.94 930.059L990.813 588.855C988.591 587.585 986.743 585.751 985.457 583.537C984.171 581.323 983.492 578.808 983.489 576.247V288.115C983.515 285.744 984.155 283.42 985.346 281.37C986.537 279.32 988.24 277.614 990.287 276.42C992.334 275.225 994.655 274.581 997.025 274.553C999.395 274.524 1001.73 275.111 1003.81 276.256Z" fill="white"/>
<path d="M968.369 675.89C979.079 674.117 1103.15 751.814 1103.15 751.814V782.191L1052.28 810.757L913.953 734.833V699.136L968.369 675.89Z" fill="#00A7E2"/>
<path d="M968.369 675.89C979.079 674.117 1103.15 751.814 1103.15 751.814V782.191L1052.28 810.757L913.953 734.833V699.136L968.369 675.89Z" fill="#A2A9B1"/>
<path d="M907 694L1045 768.5L1095.5 746V776L1045.5 804.5L907 730V694Z" fill="#72777D"/>
<path d="M884.5 751.301L727 841.212C725.356 842.159 723.99 843.522 723.041 845.165C722.091 846.808 721.591 848.672 721.591 850.57C721.591 852.468 722.091 854.332 723.041 855.975C723.99 857.617 725.356 858.981 727 859.927L1163.71 1111.26C1169.01 1114.32 1175.02 1115.93 1181.13 1115.93C1187.25 1115.93 1193.26 1114.32 1198.55 1111.26L1345.62 1026.27C1347.38 1025.3 1348.84 1023.87 1349.86 1022.14C1350.88 1020.41 1351.41 1018.43 1351.41 1016.42C1351.41 1014.41 1350.88 1012.44 1349.86 1010.71C1348.84 1008.98 1347.38 1007.55 1345.62 1006.57L903.833 751.223C900.876 749.571 897.543 748.71 894.156 748.724C890.769 748.738 887.444 749.625 884.5 751.301Z" fill="#54595D"/>
<path d="M985.379 1045.5C985.038 1043.43 984.196 1041.47 982.926 1039.79C981.657 1038.12 979.998 1036.78 978.094 1035.89L954.784 1022.41L918.756 1001.53L875.719 976.591L829.926 950.035L785.629 924.386L747.121 902.085L718.652 885.577L703.69 876.909C703.69 877.224 703.178 877.224 702.863 877.145C701.064 876.674 699.173 876.681 697.377 877.167C695.582 877.652 693.944 878.599 692.627 879.913C691.31 881.227 690.359 882.862 689.868 884.658C689.378 886.453 689.364 888.345 689.83 890.147C692.219 896.985 696.73 902.88 702.706 906.971C720.131 919.489 738.318 930.911 757.161 941.17V934.432C744.482 927.498 717.156 911.817 705.659 899.997L711.132 903.188L726.212 912.014L748.892 925.292L777.203 941.84L809.176 960.515L842.802 980.215L876.113 999.718L907.141 1017.84L933.876 1033.6L954.351 1045.42C960.612 1049.09 967.384 1054.05 974.669 1055.47C976.037 1055.57 977.411 1055.38 978.705 1054.92C979.998 1054.47 981.184 1053.75 982.189 1052.81C983.194 1051.88 983.995 1050.75 984.544 1049.49C985.093 1048.23 985.377 1046.87 985.379 1045.5Z" fill="#00A7E2"/>
<path d="M985.379 1045.5C985.038 1043.43 984.196 1041.47 982.926 1039.79C981.657 1038.12 979.998 1036.78 978.094 1035.89L954.784 1022.41L918.756 1001.53L875.719 976.591L829.926 950.035L785.629 924.386L747.121 902.085L718.652 885.577L703.69 876.909C703.69 877.224 703.178 877.224 702.863 877.145C701.064 876.674 699.173 876.681 697.377 877.167C695.582 877.652 693.944 878.599 692.627 879.913C691.31 881.227 690.359 882.862 689.868 884.658C689.378 886.453 689.364 888.345 689.83 890.147C692.219 896.985 696.73 902.88 702.706 906.971C720.131 919.489 738.318 930.911 757.161 941.17V934.432C744.482 927.498 717.156 911.817 705.659 899.997L711.132 903.188L726.212 912.014L748.892 925.292L777.203 941.84L809.176 960.515L842.802 980.215L876.113 999.718L907.141 1017.84L933.876 1033.6L954.351 1045.42C960.612 1049.09 967.384 1054.05 974.669 1055.47C976.037 1055.57 977.411 1055.38 978.705 1054.92C979.998 1054.47 981.184 1053.75 982.189 1052.81C983.194 1051.88 983.995 1050.75 984.544 1049.49C985.093 1048.23 985.377 1046.87 985.379 1045.5Z" fill="#202122"/>
<path d="M1248.91 785.762C1255.79 784.437 1260.13 776.988 1258.62 769.125C1257.11 761.262 1250.31 755.962 1243.43 757.287C1236.56 758.611 1232.21 766.06 1233.72 773.923C1235.23 781.786 1242.04 787.087 1248.91 785.762Z" fill="white"/>
<path d="M1248.44 466.597L1418.27 565.097C1420.01 566.106 1421.44 567.571 1422.41 569.334C1423.38 571.098 1423.86 573.093 1423.78 575.105L1417.91 727.622C1417.84 729.528 1417.28 731.383 1416.28 733.007C1415.28 734.632 1413.88 735.971 1412.21 736.894C1410.55 737.818 1408.67 738.295 1406.76 738.278C1404.86 738.262 1402.99 737.754 1401.34 736.802L1237.38 642.518C1235.69 641.547 1234.29 640.146 1233.31 638.458C1232.34 636.77 1231.82 634.854 1231.83 632.905V476.211C1231.82 474.262 1232.33 472.347 1233.3 470.657C1234.27 468.968 1235.67 467.565 1237.35 466.589C1239.04 465.614 1240.95 465.101 1242.9 465.103C1244.85 465.104 1246.76 465.62 1248.44 466.597Z" fill="#F4AC45"/>
<path d="M1309.28 493.35C1309.29 493.232 1309.29 493.113 1309.28 492.995L1308.65 487.676C1302.07 487.361 1298.33 488.937 1291.76 488.977C1288.5 492.311 1286.35 496.558 1285.57 501.151C1285.57 504.421 1285.97 509.031 1289.98 508.558C1290.61 511.592 1292.39 515.572 1295.97 514.744L1296.44 514.547C1296.68 516.557 1297.31 518.487 1299.24 519.078C1301.17 519.669 1302.39 518.605 1303.17 516.832C1303.88 519.512 1305.14 523.609 1307.86 523.57C1311.56 523.57 1311.8 518.093 1310.85 512.656C1310.77 506.192 1310.24 499.742 1309.28 493.35Z" fill="#EDB98A"/>
<path d="M1290.93 499.378C1289.89 502.321 1289.43 505.44 1289.59 508.558C1289.59 509.543 1291.13 509.543 1291.09 508.558C1290.94 505.573 1291.38 502.587 1292.39 499.772C1292.7 498.866 1291.24 498.472 1290.93 499.378Z" fill="black"/>
<path d="M1296.44 502.372L1295.81 515.02C1295.81 516.005 1297.27 516.005 1297.31 515.02L1297.94 502.372C1297.94 501.427 1296.52 501.427 1296.44 502.372Z" fill="black"/>
<path d="M1301.88 500.56V517.305C1301.88 517.504 1301.95 517.694 1302.09 517.835C1302.23 517.975 1302.43 518.054 1302.62 518.054C1302.82 518.054 1303.01 517.975 1303.15 517.835C1303.29 517.694 1303.37 517.504 1303.37 517.305V500.56C1303.37 500.362 1303.29 500.171 1303.15 500.031C1303.01 499.89 1302.82 499.812 1302.62 499.812C1302.43 499.812 1302.23 499.89 1302.09 500.031C1301.95 500.171 1301.88 500.362 1301.88 500.56Z" fill="black"/>
<path d="M1308.57 487.676C1313.46 492.817 1316.4 499.507 1316.88 506.588L1309.75 502.097L1308.57 487.676Z" fill="#EDB98A"/>
<path d="M1374.8 523.373C1374.8 523.373 1369.52 524.318 1369.4 524.239C1364.83 527.116 1353.22 533.065 1348.38 535.39C1345.5 536.769 1338.37 539.763 1339.95 544.097C1340.78 546.422 1343.1 546.816 1346.09 546.146C1345.88 546.763 1345.89 547.436 1346.12 548.048C1346.35 548.66 1346.78 549.172 1347.35 549.495C1348.28 549.927 1349.31 550.097 1350.33 549.986C1351.35 549.875 1352.32 549.487 1353.14 548.864C1353.29 549.596 1353.7 550.252 1354.28 550.716C1356.76 552.844 1361.49 550.48 1364.2 549.219C1364.16 549.717 1364.16 550.218 1364.2 550.716C1364.2 552.292 1365.78 553.829 1367.24 553.041C1374.21 549.337 1385.15 535.823 1388.34 529.401C1381.73 526.879 1381.29 526.131 1374.8 523.373Z" fill="#EDB98A"/>
<path d="M1370.07 542.403C1368.25 544.954 1366.07 547.235 1363.61 549.179C1362.91 549.731 1363.89 550.677 1364.6 550.164C1367.15 548.14 1369.4 545.766 1371.29 543.112C1371.77 542.403 1370.58 541.693 1370.07 542.403Z" fill="black"/>
<path d="M1365.94 538.896C1361.92 542.101 1357.83 545.2 1353.65 548.195C1352.94 548.707 1353.65 549.889 1354.36 549.377C1358.74 546.303 1362.93 543.164 1366.92 539.96C1367.59 539.33 1366.61 538.345 1365.94 538.896Z" fill="black"/>
<path d="M1359.44 537.163C1355.15 540.194 1350.59 542.831 1345.82 545.043C1345.03 545.437 1345.82 546.619 1346.53 546.225C1351.3 544.013 1355.85 541.376 1360.15 538.345C1360.94 537.832 1360.15 536.65 1359.44 537.163Z" fill="black"/>
<path d="M1369.4 524.2C1369.4 524.2 1362.75 519.315 1351.53 526.8L1360.94 532.671" fill="#EDB98A"/>
<path d="M1516.23 784.595C1516.15 784.319 1516.01 784.064 1515.82 783.845C1515.64 783.626 1515.41 783.448 1515.15 783.322C1514.89 783.196 1514.61 783.125 1514.32 783.114C1514.03 783.102 1513.74 783.151 1513.48 783.255C1513.59 781.944 1513.59 780.626 1513.48 779.315C1513.48 777.464 1513.12 774.824 1511.11 774.036C1510.53 773.82 1509.89 773.799 1509.3 773.976C1508.7 774.154 1508.18 774.52 1507.81 775.021C1507.58 773.812 1507.25 772.626 1506.82 771.475C1506.69 771.045 1506.42 770.668 1506.06 770.399C1505.7 770.13 1505.26 769.982 1504.81 769.978C1502.57 769.978 1501.43 771.79 1500.88 773.918C1500.88 773.721 1500.05 772.972 1499.85 772.854C1499.48 772.587 1499.05 772.436 1498.59 772.42C1497.75 772.369 1496.91 772.621 1496.23 773.129C1495.58 773.768 1495.19 774.623 1495.13 775.533C1494.95 777.038 1494.95 778.559 1495.13 780.064C1495.13 781.916 1495.52 783.728 1495.64 785.58C1495.76 787.432 1495.64 788.18 1495.64 789.52C1493.91 786.171 1491.47 781.994 1488.63 783.964C1485.8 785.934 1488.28 788.614 1489.06 790.465C1490.69 794.138 1492.61 797.669 1494.81 801.025C1494.51 802.678 1494.11 804.31 1493.59 805.91C1498.86 808.062 1503.95 810.617 1508.83 813.554C1510.39 808.322 1512.27 803.19 1514.46 798.188C1516.83 794.071 1517.46 789.182 1516.23 784.595Z" fill="#D08B5B"/>
<path d="M1500.48 773.878C1500.32 778.973 1500.05 784.056 1499.66 789.125C1499.66 789.559 1500.32 789.559 1500.32 789.125C1500.72 784.056 1500.99 778.973 1501.15 773.878C1501.19 773.405 1500.48 773.405 1500.48 773.878Z" fill="black"/>
<path d="M1507.33 775.178C1506.89 779.775 1506.34 784.345 1505.68 788.889C1505.68 789.322 1506.27 789.519 1506.35 788.889C1507.03 784.266 1507.6 779.63 1508.04 774.981C1508.04 774.745 1507.37 774.745 1507.33 775.178Z" fill="black"/>
<path d="M1513.32 783.688C1512.98 786.893 1512.48 790.071 1511.82 793.223C1511.82 793.657 1512.41 793.854 1512.49 793.223C1513.15 790.019 1513.65 786.788 1513.99 783.531C1514.03 783.255 1513.36 783.255 1513.32 783.688Z" fill="black"/>
<path d="M1357.67 783.807C1357.2 782.743 1356.72 781.679 1356.29 780.576C1356.04 780.006 1355.95 779.381 1356.02 778.764C1356.36 777.099 1356.6 775.415 1356.72 773.72C1356.62 768.317 1355.54 762.978 1353.54 757.96C1353.29 757.162 1352.86 756.431 1352.28 755.827C1351.7 755.223 1350.99 754.761 1350.21 754.478C1349.42 754.196 1348.58 754.1 1347.75 754.198C1346.92 754.296 1346.12 754.586 1345.42 755.045L1343.97 752.405C1341.25 747.598 1338.34 739.324 1332.15 738.694C1331.68 738.686 1331.21 738.793 1330.78 739.007C1330.35 739.221 1329.99 739.535 1329.71 739.922C1329.43 740.309 1329.25 740.758 1329.18 741.23C1329.11 741.702 1329.16 742.184 1329.32 742.634C1330.5 745.746 1331.72 748.82 1332.98 751.853C1332.72 751.571 1332.4 751.345 1332.04 751.191C1331.68 751.037 1331.3 750.958 1330.91 750.958C1330.53 750.958 1330.14 751.037 1329.79 751.191C1329.43 751.345 1329.11 751.571 1328.85 751.853C1328.12 752.592 1327.64 753.535 1327.46 754.556C1327.29 755.577 1327.43 756.627 1327.86 757.566H1327.11C1326.45 757.23 1325.73 757.041 1324.99 757.015C1324.4 757.051 1323.82 757.214 1323.3 757.493C1322.77 757.771 1322.32 758.159 1321.96 758.63C1321.55 759.19 1321.28 759.839 1321.17 760.524C1321.06 761.209 1321.11 761.911 1321.33 762.57H1320.81C1320.22 762.789 1319.69 763.146 1319.27 763.612C1318.84 764.078 1318.54 764.64 1318.37 765.249C1318.16 766.076 1318.16 766.944 1318.37 767.771C1318.06 770.844 1334.12 785.895 1334.12 785.895L1343.65 796.336L1359.64 788.732C1359.87 788.18 1357.87 784.24 1357.67 783.807Z" fill="#D08B5B"/>
<path d="M1466.07 928.877C1437.68 880.336 1410.94 927.774 1410.94 927.774C1399.93 942.843 1391.36 959.557 1385.55 977.3C1379.01 999.6 1379.05 1071.86 1382.28 1093.37C1394.09 1097.94 1420.51 1096.56 1432.84 1093.06V1006.38C1432.88 1006.13 1433.01 1005.92 1433.2 1005.76C1433.39 1005.6 1433.63 1005.52 1433.88 1005.52C1434.13 1005.52 1434.37 1005.6 1434.56 1005.76C1434.75 1005.92 1434.88 1006.13 1434.92 1006.38L1435.51 1178.52C1456.24 1179.28 1476.92 1175.88 1496.31 1168.51C1496.31 1168.51 1492.76 974.542 1466.07 928.877Z" fill="white"/>
<path d="M1357.87 778.96C1349.32 781.049 1343.49 785.54 1336.09 790.268C1338.81 799.803 1368.58 874.269 1406.02 890.029L1409.01 837.036C1409.01 837.036 1392.44 835.46 1357.87 778.96Z" fill="#00A7E2"/>
<path d="M1488.87 802.088C1487.7 811.308 1484.49 820.151 1479.47 827.97C1474.45 835.789 1467.74 842.387 1459.85 847.28L1464.93 895.939C1487.65 881.321 1511.59 826.989 1515.09 812.805C1511.64 809.378 1507.55 806.667 1503.05 804.828C1498.55 802.989 1493.73 802.058 1488.87 802.088Z" fill="#00A7E2"/>
<path d="M1401.77 893.024L1406.77 936.639C1406.77 936.639 1442.68 950.232 1469.26 936.639V892.433" fill="#00A7E2"/>
<path d="M1486.15 880.494C1485.43 878.036 1484.22 875.746 1482.61 873.757C1480.1 870.838 1477.36 868.124 1474.42 865.641C1473.69 865.066 1473.13 864.321 1472.76 863.474C1471.54 859.77 1475.87 854.096 1475.28 849.565C1474.38 842.867 1470.12 840.622 1465.95 836.209C1463.69 833.948 1462.21 831.02 1461.74 827.856C1459.34 823.034 1457.49 817.959 1456.23 812.726C1453.19 804.177 1448.35 794.721 1439.18 791.608C1434.1 789.982 1428.67 789.822 1423.51 791.146C1418.35 792.47 1413.67 795.225 1410 799.094C1403.7 806.304 1404.92 816.115 1404.21 825.137C1404.62 825.956 1404.9 826.833 1405.04 827.738C1406.26 836.485 1394.76 836.879 1393.7 843.813C1393.56 845.128 1393.62 846.458 1393.89 847.753C1394.79 852.725 1396.93 857.388 1400.12 861.307C1407.99 871.945 1389.68 877.421 1389.76 887.271C1389.98 890.821 1391.14 894.25 1393.11 897.211C1395.08 900.172 1397.79 902.56 1400.98 904.134C1416.52 911.855 1434.27 913.877 1451.15 909.847C1463.75 906.971 1490.48 896.491 1486.15 880.494ZM1416.06 864.262C1416.06 864.065 1416.06 863.828 1416.06 863.631H1416.77L1416.06 864.262Z" fill="black"/>
<path d="M1432.84 1006.3L1392.91 997.394L1430.87 1027.02L1432.84 1006.3Z" fill="black"/>
<path d="M1338.57 761.348C1335.44 755.172 1332.81 748.756 1330.7 742.161C1330.38 741.136 1328.73 741.57 1329.08 742.594C1331.18 749.36 1333.81 755.948 1336.96 762.294C1337.59 763.161 1339.05 762.294 1338.57 761.348Z" fill="black"/>
<path d="M1332.31 765.289C1330.76 762.63 1329.36 759.88 1328.14 757.054C1327.7 756.069 1326.25 757.054 1326.68 757.921C1327.91 760.747 1329.3 763.497 1330.85 766.155C1330.97 766.349 1331.16 766.488 1331.37 766.544C1331.59 766.599 1331.82 766.566 1332.02 766.451C1332.21 766.336 1332.35 766.149 1332.4 765.931C1332.46 765.713 1332.43 765.482 1332.31 765.289Z" fill="black"/>
<path d="M1326.25 769.662C1324.51 767.412 1323.18 764.879 1322.31 762.176C1322 761.151 1320.34 761.585 1320.7 762.609C1321.55 765.441 1322.88 768.106 1324.63 770.489C1325.5 771.395 1326.92 770.529 1326.25 769.662Z" fill="black"/>
<path d="M1351.29 764.737C1349.66 761.428 1348.17 758.052 1346.8 754.611C1346.41 753.626 1344.75 754.06 1345.19 755.045C1346.61 758.617 1348.15 762.124 1349.83 765.565C1350.31 766.589 1351.76 765.722 1351.29 764.737Z" fill="black"/>
<path d="M976.636 460.766C976.881 460.363 977.004 459.898 976.991 459.426C977.01 457.097 976.548 454.788 975.633 452.645C974.719 450.503 973.371 448.573 971.675 446.976C971.013 446.376 970.222 445.936 969.362 445.69C968.503 445.444 967.599 445.4 966.72 445.56C965.841 445.72 965.01 446.08 964.292 446.612C963.574 447.145 962.988 447.835 962.58 448.631C958.878 456.235 967.344 463.839 974.116 464.745C976.006 464.982 976.755 463.406 976.44 461.909C976.59 461.547 976.658 461.157 976.636 460.766Z" fill="#CA054D"/>
<path d="M969.905 592.204L956.281 584.6L967.621 615.647L969.905 592.204Z" fill="#202122"/>
<path d="M1121.89 894.56L1077 921.155L1110.32 940.501C1119.73 935.024 1146.66 919.106 1155.32 913.984L1121.89 894.56Z" fill="white"/>
<path d="M1072.71 866.034L1027.82 892.629L1070 917.136C1077.36 912.881 1104.57 896.806 1115.04 890.62L1072.71 866.034Z" fill="white"/>
<path d="M894.107 762.255L848.51 788.456L889.067 812.096C895.485 808.392 923.008 792.12 934.112 785.58L894.107 762.255Z" fill="white"/>
<path d="M990.143 818.045L945.256 844.64L978.567 863.985C986.442 859.415 1013.49 843.419 1023.61 837.469L990.143 818.045Z" fill="white"/>
<path d="M940.963 789.48L896.076 816.075L938.246 840.582C943.208 837.745 971.439 820.882 983.291 814.066L940.963 789.48Z" fill="white"/>
<path d="M1162.17 918.2L1117.28 944.795L1149.14 963.313C1158.71 957.718 1185.68 941.801 1194.14 936.797L1162.17 918.2Z" fill="white"/>
<path d="M1030.42 841.449L985.537 868.044L1020.97 888.532C1029.28 883.725 1056.41 867.768 1066.02 862.016L1030.42 841.449Z" fill="white"/>
<path d="M1201.04 940.579L1156.19 967.214L1198.36 991.72C1207.18 986.598 1234.11 970.681 1243.36 965.204L1201.04 940.579Z" fill="white"/>
<path d="M1250.22 969.184L1205.37 995.779L1281.05 1039.75L1326.6 1013.55L1250.22 969.184Z" fill="white"/>
<path d="M842.723 796.06L797.126 822.261L856.189 856.5C864.064 852.008 890.996 836.012 901.234 829.983L842.723 796.06Z" fill="white"/>
<path d="M957.108 862.686L912.063 889.281L945.374 908.626C954.273 903.425 981.205 887.547 990.38 882.11L957.108 862.686Z" fill="white"/>
<path d="M1039.68 910.675L994.75 937.27L1036.92 961.776C1045.39 956.852 1072.36 940.934 1081.97 935.26L1039.68 910.675Z" fill="white"/>
<path d="M997.427 886.089L952.539 912.684L987.977 933.172C997.23 927.774 1024.16 911.856 1032.98 906.656L997.427 886.089Z" fill="white"/>
<path d="M1088.86 939.239L1043.97 965.834L1077.44 985.18C1087.71 979.152 1114.84 963.155 1122.44 958.664L1088.86 939.239Z" fill="white"/>
<path d="M1129.18 962.643L1084.29 989.12L1116.14 1007.64C1126.62 1001.53 1153.79 985.495 1161.15 981.122L1129.18 962.643Z" fill="white"/>
<path d="M908.125 834.121L863.237 860.716L905.408 885.222C912.102 881.282 939.507 865.168 950.453 858.706L908.125 834.121Z" fill="white"/>
<path d="M1168 985.18L1123.11 1011.78L1165.32 1036.4C1175.09 1030.73 1202.02 1014.77 1210.33 1009.88L1168 985.18Z" fill="white"/>
<path d="M1172.33 1040.42L1229.62 1073.71L1275.22 1047.51L1217.18 1013.82L1172.33 1040.42Z" fill="white"/>
<path d="M1138.78 1035.85L1105.39 1055.71L1144.1 1078.12L1178 1058.66L1138.78 1035.85Z" fill="white"/>
<path d="M1152.09 1082.77L1185.01 1101.84L1218.95 1082.46L1185.44 1062.96L1152.09 1082.77Z" fill="white"/>
<path d="M786.456 831.126L751.53 850.55L791.181 873.52L825.477 853.82L786.456 831.126Z" fill="white"/>
<path d="M832.879 858.115L799.174 878.13L841.502 902.676L875.759 883.016L832.879 858.115Z" fill="white"/>
<path d="M883.201 887.35L849.536 907.326L1097.32 1051.02L1131.3 1031.51L883.201 887.35Z" fill="white"/>
<path d="M1050.87 471.918C1074.09 471.261 1092.03 439.871 1090.96 401.806C1089.88 363.742 1070.19 333.417 1046.97 334.074C1023.76 334.731 1005.81 366.121 1006.89 404.186C1007.96 442.25 1027.65 472.575 1050.87 471.918Z" fill="#EAECF0"/>
<path d="M1081.91 395.087C1085.05 360.184 1068.77 330.194 1045.54 328.102C1022.32 326.011 1000.94 352.61 997.804 387.513C994.665 422.416 1010.95 452.406 1034.17 454.498C1057.4 456.589 1078.77 429.99 1081.91 395.087Z" fill="#92BFB1"/>
<path d="M1055.68 385.798C1056.63 375.68 1049.98 366.786 1040.85 365.933C1031.71 365.08 1023.54 372.591 1022.59 382.709C1021.65 392.827 1028.29 401.721 1037.43 402.574C1046.57 403.427 1054.74 395.916 1055.68 385.798Z" fill="white"/>
<path d="M1003.06 424.636C1003.06 424.636 1012.9 402.848 1030.38 405.606C1047.87 408.364 1058.97 417.426 1066.18 442.051C1061.97 448.207 1055.89 452.842 1048.84 455.27C1041.79 457.697 1034.14 457.787 1027.04 455.526C1020.82 452.727 1015.39 448.448 1011.21 443.064C1007.03 437.679 1004.23 431.353 1003.06 424.636Z" fill="white"/>
<path d="M1094.01 410.768C1093.92 410.519 1093.8 410.281 1093.66 410.058C1094.19 409.554 1094.61 408.941 1094.88 408.261C1095.15 407.581 1095.27 406.85 1095.24 406.118C1095.18 405.63 1095.03 405.157 1094.78 404.73C1094.54 404.303 1094.21 403.931 1093.82 403.636C1094.19 403.221 1094.41 402.699 1094.47 402.146C1094.52 401.594 1094.4 401.038 1094.12 400.557C1093.84 400.077 1093.42 399.697 1092.91 399.472C1092.41 399.247 1091.84 399.187 1091.3 399.302C1087.36 400.051 1084.92 405.094 1082.87 408.088C1081.34 410.295 1079.92 412.58 1078.58 414.865C1078.34 411.556 1077.87 408.207 1077.63 405.094C1077.4 401.982 1072.56 401.785 1072.56 405.094C1072.83 410.082 1072.31 415.083 1071.02 419.908C1070.52 420.156 1070.07 420.489 1069.68 420.893C1055.39 435.887 1037.5 446.958 1017.71 453.044C1016.72 453.376 1015.86 454.024 1015.28 454.889C1014.69 455.753 1014.41 456.786 1014.46 457.829C1014.52 458.872 1014.92 459.867 1015.6 460.661C1016.28 461.455 1017.2 462.004 1018.22 462.224C1018.29 463.184 1018.65 464.099 1019.25 464.846C1019.86 465.594 1020.68 466.136 1021.6 466.4C1021.75 467.136 1022.05 467.832 1022.49 468.443C1022.92 469.054 1023.48 469.567 1024.12 469.946L1020.78 471.404C1015.34 473.689 1017.75 482.673 1023.26 480.387C1044.01 471.71 1062.23 457.911 1076.22 440.278C1077.83 438.742 1079.41 437.205 1080.98 435.59C1083.42 433.107 1095.24 421.248 1092.32 416.166C1093.19 414.393 1094.88 413.053 1094.01 410.768Z" fill="#614335"/>
<path d="M1012.11 355.529C1006.56 357.735 1002.27 369.713 1002.74 372.234L1007.11 370.028L1007.9 369.161C1008.68 364.447 1010.1 359.86 1012.11 355.529Z" fill="#F4AC45"/>
<path d="M1012.86 365.261C1012.56 365.048 1012.23 364.888 1011.88 364.788L1011.52 364.473C1009.36 362.778 1006.01 364.985 1004.04 366.049C1001.52 367.377 999.15 368.962 996.955 370.777C995.957 372.142 995.247 373.697 994.869 375.347C994.042 377.317 993.215 379.287 992.27 381.218C990.351 385.288 988.181 389.236 985.773 393.038C981.071 400.4 975.52 407.184 969.235 413.25C966.322 416.087 970.771 420.499 973.685 417.663L975.772 415.574C976.21 415.864 976.723 416.019 977.248 416.019C977.773 416.019 978.287 415.864 978.725 415.574C979.241 415.22 979.728 414.824 980.182 414.392L980.851 413.841C981.036 414.322 981.338 414.749 981.73 415.085C982.121 415.42 982.59 415.653 983.094 415.763C983.597 415.872 984.12 415.854 984.615 415.712C985.11 415.569 985.562 415.305 985.93 414.944L988.057 412.698C988.735 412.445 989.286 411.936 989.592 411.28C989.592 411.28 989.907 415.574 989.986 415.456C993.412 411.831 997.467 401.784 1000.89 395.756C1000.87 395.479 1000.94 395.202 1001.09 394.968C1003.15 391.389 1004.07 387.265 1003.73 383.148C1003.72 380.321 1003.97 377.498 1004.48 374.717L1010.07 370.383C1011.41 369.358 1012.86 367.822 1012.59 366.443C1012.75 366.07 1012.85 365.668 1012.86 365.261Z" fill="#F4AC45"/>
<path d="M1033.69 444.218C1013.81 450.049 1010.38 447.843 1000.97 447.528C991.561 447.212 981.56 434.013 981.56 434.013C981.56 434.013 979.197 404.503 961.597 427.591C948.485 444.848 943.445 494.808 941.909 518.999C948.848 523.769 956.909 526.647 965.298 527.352C970.698 528.257 976.163 528.718 981.639 528.731C985.006 528.707 988.331 527.982 991.404 526.603L1000.74 483.263C1015.74 484.077 1030.58 479.817 1042.87 471.168L1033.69 444.218Z" fill="#F4AC45"/>
<path d="M990.813 408.718C990.813 408.718 1003.61 433.304 990.813 440.238C978.016 447.173 968.251 435.707 967.188 432.752C966.546 429.493 966.708 426.126 967.662 422.944C968.615 419.762 970.33 416.861 972.658 414.493C974.986 412.125 977.857 410.361 981.02 409.354C984.184 408.348 987.546 408.13 990.813 408.718Z" fill="#614335"/>
<path d="M991.916 405.055C988.686 403 985.05 401.668 981.258 401.151C977.466 400.634 973.606 400.944 969.945 402.06C963.497 403.24 957.563 406.36 952.935 411.004C951.299 409.899 949.393 409.259 947.422 409.152C945.034 408.973 942.651 409.555 940.614 410.815C938.577 412.075 936.99 413.948 936.082 416.165C935.34 418.252 935.325 420.528 936.04 422.624C936.755 424.72 938.158 426.513 940.02 427.71C942.907 429.223 946.275 429.535 949.391 428.576V429.167C949.824 433.817 945.454 436.141 943.721 440.081C942.884 441.876 942.649 443.894 943.052 445.834C943.485 447.764 945.493 449.774 945.454 451.822C945.101 453.282 944.398 454.635 943.406 455.762C942.505 457.102 941.764 458.543 941.201 460.057C950.808 464.503 961.649 465.518 971.914 462.933C982.901 461.008 992.972 455.576 1000.62 447.449C1000.17 446.44 999.515 445.539 998.689 444.809C996.974 443.655 995.139 442.691 993.215 441.933C990.499 440.357 993.215 435.59 993.215 433.029C993.215 428.616 989.829 426.764 986.167 425.149C983.529 424.045 983.411 422.43 983.372 419.751C983.134 417.62 983.574 415.469 984.632 413.604C985.425 413.719 986.233 413.552 986.915 413.132C988.285 412.305 989.753 411.656 991.286 411.201C992.055 410.924 992.685 410.356 993.038 409.619C993.392 408.881 993.442 408.034 993.176 407.261C993.176 406.815 993.06 406.377 992.839 405.99C992.618 405.603 992.3 405.281 991.916 405.055Z" fill="black"/>
<path d="M982.229 414.865C986.329 413.967 990.299 412.55 994.041 410.649C994.041 410.255 995.262 394.889 968.133 400.248C941.003 405.606 953.879 438.032 953.879 438.032" fill="black"/>
<path d="M1239.47 449.655L1429.33 561.472C1431.28 562.635 1432.88 564.302 1433.96 566.3C1435.04 568.297 1435.57 570.55 1435.47 572.819L1428.9 745.825C1428.84 747.97 1428.23 750.064 1427.13 751.902C1426.02 753.739 1424.45 755.257 1422.58 756.306C1420.71 757.356 1418.6 757.9 1416.46 757.886C1414.31 757.872 1412.21 757.3 1410.35 756.226L1227.06 649.295C1225.16 648.179 1223.59 646.584 1222.5 644.669C1221.4 642.754 1220.83 640.586 1220.84 638.381V460.529C1220.82 458.337 1221.37 456.178 1222.45 454.271C1223.53 452.364 1225.1 450.777 1226.99 449.672C1228.88 448.567 1231.04 447.983 1233.23 447.98C1235.42 447.978 1237.57 448.555 1239.47 449.655Z" stroke="#54595D" stroke-miterlimit="10" stroke-linecap="round" stroke-dasharray="3.04 5.06"/>
<path d="M1356.53 400.917C1348.93 397.411 1330.89 385.512 1308.14 396.465C1285.38 407.418 1263.8 427.67 1287.31 487.322C1294.9 490.236 1303.28 490.32 1310.93 487.558C1310.93 487.558 1306.09 435.353 1313.41 429.285L1389.88 471.798C1390.73 481.736 1388.65 491.706 1383.92 500.482C1379.18 509.259 1371.99 516.462 1363.22 521.206L1384.29 540.551C1401.53 540.275 1439.41 485.391 1427.6 446.385C1415.79 407.379 1351.29 398.908 1351.29 398.908" fill="#00A7E2"/>
<path d="M1356.53 400.917C1348.93 397.411 1330.89 385.512 1308.14 396.465C1285.38 407.418 1263.8 427.67 1287.31 487.322C1294.9 490.236 1303.28 490.32 1310.93 487.558C1310.93 487.558 1306.09 435.353 1313.41 429.285L1389.88 471.798C1390.73 481.736 1388.65 491.706 1383.92 500.482C1379.18 509.259 1371.99 516.462 1363.22 521.206L1384.29 540.551C1401.53 540.275 1439.41 485.391 1427.6 446.385C1415.79 407.379 1351.29 398.908 1351.29 398.908" fill="#CA054D"/>
<path d="M1380.9 397.687C1375.7 403.439 1365.74 400.839 1359.17 399.341C1351.29 397.529 1342.04 392.683 1342.75 383.187C1342.75 381.769 1340.62 381.769 1340.5 383.187C1339.75 393.077 1348.77 398.947 1357.32 401.193C1364.91 403.084 1376.41 405.961 1382.48 399.263C1383.42 398.12 1381.85 396.623 1380.9 397.687Z" fill="#92BFB1"/>
<path d="M1338.38 377.199C1338.38 377.199 1338.38 425.622 1356.13 428.774C1375.82 432.241 1386.61 410.059 1386.61 410.059C1386.61 410.059 1389.13 367.27 1369.72 363.527C1350.31 359.784 1338.97 371.013 1338.38 377.199Z" fill="#EDB98A"/>
<path d="M1372.75 405.251C1372.75 405.251 1377.44 386.654 1382.63 392.801C1387.83 398.947 1374.21 412.304 1374.21 412.304" fill="#D08B5B"/>
<path d="M1377.59 357.499C1377.59 357.499 1394.92 359.35 1399.96 373.259C1405 387.167 1392.08 414.51 1382.75 418.805L1394.01 394.692L1393.46 378.42L1377.59 357.499Z" fill="#202122"/>
<path d="M1399.68 379.366C1398.27 369.713 1391.81 365.024 1383.5 360.06L1381.41 358.956C1383.08 357.65 1384.43 355.979 1385.35 354.071C1385.46 353.878 1385.52 353.66 1385.52 353.438C1385.52 353.215 1385.46 352.997 1385.35 352.805C1385.24 352.613 1385.08 352.454 1384.88 352.344C1384.69 352.234 1384.47 352.178 1384.25 352.18C1383.15 352.223 1382.08 352.495 1381.1 352.976C1380.12 353.458 1379.24 354.139 1378.54 354.977C1377.55 352.985 1376.22 351.184 1374.6 349.658C1374.44 349.508 1374.25 349.401 1374.03 349.347C1373.82 349.292 1373.6 349.293 1373.39 349.348C1373.17 349.403 1372.98 349.511 1372.82 349.661C1372.66 349.812 1372.54 350.001 1372.47 350.21C1372.1 351.145 1371.93 352.152 1371.98 353.16C1372.04 354.168 1372.31 355.152 1372.79 356.041C1364.08 354.219 1355 355.619 1347.24 359.981C1344.36 361.599 1341.91 363.866 1340.07 366.6C1337.7 366.35 1335.31 366.773 1333.18 367.821C1330.89 368.888 1329.01 370.674 1327.83 372.908C1326.65 375.141 1326.23 377.7 1326.64 380.193C1327.44 382.764 1329.22 384.918 1331.59 386.193C1333.96 387.467 1336.74 387.76 1339.32 387.009C1342.01 386.51 1344.54 385.33 1346.64 383.581C1345.07 386.221 1344.28 389.61 1349.4 390.792C1358.3 392.84 1362.51 387.521 1363.06 391.974C1363.54 395.598 1368.54 397.608 1372.12 397.687C1372.4 398.238 1373.07 399.696 1373.85 401.627C1375.64 401.034 1377.56 400.925 1379.4 401.311C1379.55 401.152 1379.72 401.03 1379.92 400.953C1380.12 400.877 1380.34 400.849 1380.55 400.872C1380.76 400.895 1380.96 400.969 1381.14 401.086C1381.32 401.204 1381.47 401.362 1381.57 401.548C1384.64 406.827 1383.93 412.58 1382.75 418.687C1387.61 414.58 1391.63 409.561 1394.56 403.912C1398.64 396.408 1400.42 387.873 1399.68 379.366ZM1374.48 353.401L1374.84 353.953C1374.82 354.083 1374.82 354.216 1374.84 354.347C1374.84 354.741 1375.15 355.174 1375.31 355.568C1374.86 354.927 1374.57 354.182 1374.48 353.401Z" fill="#202122"/>
<path d="M1470.28 610.88L1583.25 676.796C1584.29 677.409 1585.16 678.283 1585.76 679.334C1586.36 680.385 1586.68 681.575 1586.67 682.785C1586.68 684.007 1586.35 685.207 1585.74 686.264C1585.13 687.322 1584.25 688.199 1583.19 688.807C1582.13 689.415 1580.93 689.732 1579.71 689.726C1578.49 689.72 1577.29 689.392 1576.24 688.774L1463.31 623.252C1462.26 622.645 1461.39 621.772 1460.78 620.721C1460.17 619.67 1459.85 618.477 1459.85 617.263V616.869C1459.85 615.647 1460.17 614.447 1460.78 613.39C1461.39 612.332 1462.27 611.455 1463.33 610.847C1464.39 610.24 1465.59 609.923 1466.81 609.928C1468.03 609.934 1469.23 610.262 1470.28 610.88Z" fill="#92BFB1"/>
<path d="M1470.28 646.34L1583.25 712.256C1584.29 712.868 1585.16 713.743 1585.76 714.794C1586.36 715.845 1586.67 717.034 1586.67 718.245C1586.67 719.467 1586.35 720.667 1585.74 721.724C1585.13 722.782 1584.25 723.659 1583.19 724.266C1582.13 724.874 1580.93 725.191 1579.71 725.186C1578.49 725.18 1577.29 724.852 1576.24 724.234L1463.31 658.909C1462.26 658.301 1461.39 657.429 1460.78 656.378C1460.17 655.327 1459.85 654.134 1459.85 652.92V652.526C1459.81 651.287 1460.11 650.062 1460.7 648.977C1461.3 647.892 1462.18 646.986 1463.24 646.355C1464.31 645.723 1465.52 645.389 1466.76 645.386C1468 645.384 1469.21 645.713 1470.28 646.34Z" fill="#92BFB1"/>
<path d="M1470.28 682.155L1583.25 748.071C1584.29 748.683 1585.16 749.558 1585.76 750.609C1586.36 751.659 1586.68 752.849 1586.67 754.06C1586.68 755.281 1586.35 756.482 1585.74 757.539C1585.13 758.596 1584.25 759.473 1583.19 760.081C1582.13 760.689 1580.93 761.006 1579.71 761C1578.49 760.995 1577.29 760.666 1576.24 760.049L1463.31 694.526C1462.26 693.919 1461.39 693.046 1460.78 691.995C1460.17 690.944 1459.85 689.752 1459.85 688.537V688.143C1459.85 686.922 1460.17 685.721 1460.78 684.664C1461.39 683.607 1462.27 682.73 1463.33 682.122C1464.39 681.514 1465.59 681.197 1466.81 681.203C1468.03 681.208 1469.23 681.537 1470.28 682.155Z" fill="#92BFB1"/>
<path d="M1470.28 717.772L1583.25 783.689C1584.29 784.301 1585.16 785.176 1585.76 786.226C1586.36 787.277 1586.68 788.467 1586.67 789.677C1586.68 790.899 1586.35 792.099 1585.74 793.157C1585.13 794.214 1584.25 795.091 1583.19 795.699C1582.13 796.307 1580.93 796.624 1579.71 796.618C1578.49 796.612 1577.29 796.284 1576.24 795.666L1463.31 730.183C1462.26 729.576 1461.39 728.703 1460.78 727.652C1460.17 726.601 1459.85 725.409 1459.85 724.195V723.801C1459.84 722.576 1460.16 721.37 1460.76 720.307C1461.37 719.245 1462.25 718.362 1463.31 717.749C1464.37 717.137 1465.58 716.816 1466.8 716.82C1468.02 716.824 1469.23 717.153 1470.28 717.772Z" fill="#92BFB1"/>
<path d="M1186.7 487.637V601.739L1098.46 551.15V438.032L1186.7 487.637Z" fill="#72777D"/>
<path d="M1108.66 551.149V579.045L1131.15 559.463L1108.66 551.149Z" fill="#72777D"/>
<path d="M1582.89 637.199C1586.4 637.199 1589.23 634.112 1589.23 630.304C1589.23 626.496 1586.4 623.409 1582.89 623.409C1579.39 623.409 1576.55 626.496 1576.55 630.304C1576.55 634.112 1579.39 637.199 1582.89 637.199Z" fill="#CA054D"/>
<path d="M1562.66 626.837C1566.16 626.837 1569 623.75 1569 619.942C1569 616.134 1566.16 613.047 1562.66 613.047C1559.16 613.047 1556.32 616.134 1556.32 619.942C1556.32 623.75 1559.16 626.837 1562.66 626.837Z" fill="#CA054D"/>
<path d="M1542.42 616.79C1545.92 616.79 1548.76 613.703 1548.76 609.895C1548.76 606.087 1545.92 603 1542.42 603C1538.92 603 1536.08 606.087 1536.08 609.895C1536.08 613.703 1538.92 616.79 1542.42 616.79Z" fill="#CA054D"/>
<path d="M952.619 752.72C949.711 752.187 946.995 750.896 944.744 748.977C943.343 746.373 942.767 743.405 943.091 740.466C943.091 737.84 943.091 735.095 943.091 732.232C942.937 732.108 942.812 731.952 942.723 731.775C942.635 731.599 942.586 731.405 942.579 731.207C942.427 728.977 942.427 726.74 942.579 724.509L931.317 723.406C929.37 730.474 927.806 737.642 926.632 744.879C926.947 747.086 937.657 761.742 943.13 762.727C948.603 763.712 963.723 758.787 964.983 756.857C960.888 755.635 956.714 754.335 952.619 752.72Z" fill="#614335"/>
<path d="M1030.5 712.69C1024.1 712.737 1017.71 713.33 1011.41 714.463C1011.41 714.463 1009.24 701.894 1009.56 701.264L993.53 702.367C993.53 702.367 991.521 725.692 991.521 728.765C991.521 734.399 998.53 736.211 1000.07 735.975C1001.17 735.597 1002.25 735.15 1003.29 734.635C1002.71 731.729 1002.41 728.774 1002.39 725.81C1002.39 724.47 1002.74 723.485 1004.04 723.012C1007.12 722.613 1010.26 722.895 1013.22 723.84C1016.09 724.391 1018.93 725.061 1021.8 725.573C1026.25 723.658 1030.34 720.992 1033.89 717.693C1034.91 714.581 1036.21 713.832 1030.5 712.69Z" fill="#614335"/>
<path d="M1035.86 713.714L1035.46 713.281C1034.24 712.099 1031.01 712.217 1029.52 712.138C1023.41 712.179 1017.33 712.959 1011.41 714.463C1011.41 714.463 1025.94 712.493 1026.49 715.093C1026.72 716.136 1026.71 717.22 1026.46 718.258C1026.21 719.297 1025.72 720.264 1025.03 721.082C1018.97 726.48 1009.48 720.53 1003.57 717.969L992.585 713.241L991.876 722.185C991.496 726.274 991.496 730.389 991.876 734.478C992.624 735.739 999.121 739.167 1000.5 738.418C1001.88 737.669 1006.13 735.148 1006.13 735.148L1005.26 724.352C1005.26 724.352 1014.32 728.292 1018.61 727.189C1021.88 726.401 1039.64 718.757 1035.86 713.714Z" fill="#CA054D"/>
<path d="M937.066 745.352C937.066 745.352 942.972 763.792 944.941 765.052C946.91 766.313 969.747 759.024 966.361 754.69C964.196 751.932 950.611 751.972 949.312 751.617C949.312 751.617 956.517 753.981 956.517 755.124C953.837 757.503 950.529 759.062 946.989 759.615C946.516 758.748 936.672 742.594 936.672 742.594L927.419 739.324L919.938 756.227L926.395 758.985C926.395 758.985 928.364 764.146 929.034 764.146C931.25 761.134 933.237 757.96 934.979 754.651C935.404 756.992 936.16 759.26 937.224 761.388C938.129 762.058 945.65 768.244 949.036 763.516L942.697 756.384" fill="#CA054D"/>
<path d="M919.938 756.226L921.119 760.442L929.034 764.146V756.226L924.466 754.65" fill="#202122"/>
<path d="M984.159 708.71C991.113 710.333 998.348 710.32 1005.3 708.672C1012.24 707.024 1018.72 703.787 1024.2 699.215C1024.44 675.575 1026.64 654.023 1025.94 630.304C1024.79 591.574 1019.16 553.553 991.994 523.333L942.539 515.729C922.458 553.947 918.363 728.765 918.363 728.765C918.363 728.765 943.563 744.84 962.739 736.96L970.181 591.18C970.181 591.18 983.293 606.704 985.655 615.372C987.388 621.912 983.844 679.436 984.159 708.71Z" fill="#202122"/>
<path d="M774.84 657.451C823.052 657.451 862.135 638.117 862.135 614.268C862.135 590.419 823.052 571.086 774.84 571.086C726.629 571.086 687.546 590.419 687.546 614.268C687.546 638.117 726.629 657.451 774.84 657.451Z" fill="#00A7E2"/>
<path d="M774.84 657.451C823.052 657.451 862.135 638.117 862.135 614.268C862.135 590.419 823.052 571.086 774.84 571.086C726.629 571.086 687.546 590.419 687.546 614.268C687.546 638.117 726.629 657.451 774.84 657.451Z" fill="#202122"/>
<path d="M1694.72 1030.06L1576 1101.5C1576 1101.5 1597.85 1139.88 1651.76 1162.53L1782.25 1088.72" fill="#C8CCD1"/>
<path d="M1753.59 1092.03C1789.73 1092.03 1819.03 1071.38 1819.03 1045.9C1819.03 1020.41 1789.73 999.758 1753.59 999.758C1717.44 999.758 1688.14 1020.41 1688.14 1045.9C1688.14 1071.38 1717.44 1092.03 1753.59 1092.03Z" fill="#72777D"/>
<path d="M1753.54 1038.76C1780.62 1038.76 1802.57 1029.77 1802.57 1018.67C1802.57 1007.57 1780.62 998.576 1753.54 998.576C1726.47 998.576 1704.52 1007.57 1704.52 1018.67C1704.52 1029.77 1726.47 1038.76 1753.54 1038.76Z" fill="#202122"/>
<path d="M1751.73 985.18C1751.73 976.118 1751.42 967.056 1750.71 958.034C1750.53 955.696 1750.32 953.358 1750.08 951.02L1749.57 946.411C1749.37 945.071 1748.86 941.564 1748.86 941.722C1748.55 939.883 1748.23 938.045 1747.92 936.206C1742.56 905.461 1730.62 876.24 1712.91 850.55C1706.26 866.423 1702.95 883.497 1703.19 900.706C1703.19 905.671 1703.58 910.635 1704.01 915.6C1704.01 916.939 1704.01 917.491 1704.01 917.688C1704.01 917.885 1704.01 917.373 1704.21 918.515C1704.6 920.958 1705.08 923.401 1705.55 925.804C1707.52 935.043 1710.15 944.128 1713.42 952.99C1716.33 961.135 1719.87 969.039 1724.01 976.63C1728.46 985.18 1733.31 993.533 1738.5 1001.65C1742.44 1007.99 1746.38 1013.71 1750.32 1019.1C1751.18 1007.84 1751.73 996.488 1751.73 985.18ZM1725.98 883.331C1726.16 882.159 1726.08 880.962 1725.75 879.824C1727.01 881.112 1728.23 882.425 1729.41 883.764C1728.3 883.444 1727.14 883.298 1725.98 883.331Z" fill="#CA054D"/>
<path d="M1768.63 992.154C1773.55 984.55 1778.15 976.749 1782.45 968.75C1783.55 966.675 1784.64 964.587 1785.71 962.486L1787.76 958.309L1789.69 953.975C1790.43 952.268 1791.15 950.548 1791.86 948.814C1803.95 920.058 1809.69 889.023 1808.67 857.839C1794.44 867.573 1782.38 880.141 1773.23 894.757C1770.59 898.973 1768.19 903.307 1765.87 907.72L1764.89 909.572C1764.89 909.572 1764.89 909.335 1764.61 910.399C1763.63 912.684 1762.68 914.969 1761.81 917.255C1758.46 926.071 1755.73 935.117 1753.66 944.322C1751.68 952.756 1750.37 961.332 1749.73 969.972C1748.82 979.585 1748.43 989.238 1748.39 998.852C1748.39 1006.38 1748.39 1013.27 1748.86 1019.89C1755.91 1010.95 1762.56 1001.69 1768.63 992.154ZM1801.94 892.551C1802.72 891.661 1803.3 890.613 1803.63 889.478C1804 891.237 1804.31 893.01 1804.58 894.797C1803.82 893.916 1802.93 893.158 1801.94 892.551Z" fill="#CA054D"/>
<path d="M1768.27 1014.73C1773.36 1012.1 1778.36 1009.38 1783.27 1006.57L1787.21 1004.25L1789.65 1002.67L1792.09 1000.98L1794.93 998.891C1810.74 987.283 1823.85 972.391 1833.36 955.236C1822.57 955.929 1812.03 958.839 1802.41 963.786C1799.61 965.204 1796.94 966.78 1794.26 968.395L1793.12 969.065C1793.12 969.065 1793.12 969.065 1792.72 969.42C1791.46 970.326 1790.2 971.272 1788.98 972.217C1784.32 975.84 1779.93 979.79 1775.83 984.037C1772.04 987.948 1768.57 992.15 1765.44 996.606C1761.85 1001.49 1758.51 1006.57 1755.4 1011.77C1752.95 1015.71 1750.83 1019.65 1748.86 1023.28C1755.36 1020.64 1761.85 1017.92 1768.27 1014.73ZM1818.4 971.744C1819.11 971.523 1819.77 971.146 1820.33 970.641C1819.96 971.718 1819.56 972.782 1819.14 973.833C1819.01 973.101 1818.75 972.397 1818.4 971.744Z" fill="#92BFB1"/>
<path d="M1751.73 985.18C1751.73 976.118 1751.42 967.056 1750.71 958.034C1750.53 955.696 1750.32 953.358 1750.08 951.02L1749.57 946.411C1749.37 945.071 1748.86 941.564 1748.86 941.722C1748.55 939.883 1748.23 938.045 1747.92 936.206C1742.56 905.461 1730.62 876.24 1712.91 850.55C1706.26 866.423 1702.95 883.497 1703.19 900.706C1703.19 905.671 1703.58 910.635 1704.01 915.6C1704.01 916.939 1704.01 917.491 1704.01 917.688C1704.01 917.885 1704.01 917.373 1704.21 918.515C1704.6 920.958 1705.08 923.401 1705.55 925.804C1707.52 935.043 1710.15 944.128 1713.42 952.99C1716.33 961.135 1719.87 969.039 1724.01 976.63C1728.46 985.18 1733.31 993.533 1738.5 1001.65C1742.44 1007.99 1746.38 1013.71 1750.32 1019.1C1751.18 1007.84 1751.73 996.488 1751.73 985.18ZM1725.98 883.331C1726.16 882.159 1726.08 880.962 1725.75 879.824C1727.01 881.112 1728.23 882.425 1729.41 883.764C1728.3 883.444 1727.14 883.298 1725.98 883.331Z" fill="#92BFB1"/>
<path d="M1768.63 992.154C1773.55 984.55 1778.15 976.749 1782.45 968.75C1783.55 966.675 1784.64 964.587 1785.71 962.486L1787.76 958.309L1789.69 953.975C1790.43 952.268 1791.15 950.548 1791.86 948.814C1803.95 920.058 1809.69 889.023 1808.67 857.839C1794.44 867.573 1782.38 880.141 1773.23 894.757C1770.59 898.973 1768.19 903.307 1765.87 907.72L1764.89 909.572C1764.89 909.572 1764.89 909.335 1764.61 910.399C1763.63 912.684 1762.68 914.969 1761.81 917.255C1758.46 926.071 1755.73 935.117 1753.66 944.322C1751.68 952.756 1750.37 961.332 1749.73 969.972C1748.82 979.585 1748.43 989.238 1748.39 998.852C1748.39 1006.38 1748.39 1013.27 1748.86 1019.89C1755.91 1010.95 1762.56 1001.69 1768.63 992.154ZM1801.94 892.551C1802.72 891.661 1803.3 890.613 1803.63 889.478C1804 891.237 1804.31 893.01 1804.58 894.797C1803.82 893.916 1802.93 893.158 1801.94 892.551Z" fill="#92BFB1"/>
<path d="M1768.27 1014.73C1773.36 1012.1 1778.36 1009.38 1783.27 1006.57L1787.21 1004.25L1789.65 1002.67L1792.09 1000.98L1794.93 998.891C1810.74 987.283 1823.85 972.391 1833.36 955.236C1822.57 955.929 1812.03 958.839 1802.41 963.786C1799.61 965.204 1796.94 966.78 1794.26 968.395L1793.12 969.065C1793.12 969.065 1793.12 969.065 1792.72 969.42C1791.46 970.326 1790.2 971.272 1788.98 972.217C1784.32 975.84 1779.93 979.79 1775.83 984.037C1772.04 987.948 1768.57 992.15 1765.44 996.606C1761.85 1001.49 1758.51 1006.57 1755.4 1011.77C1752.95 1015.71 1750.83 1019.65 1748.86 1023.28C1755.36 1020.64 1761.85 1017.92 1768.27 1014.73ZM1818.4 971.744C1819.11 971.523 1819.77 971.146 1820.33 970.641C1819.96 971.718 1819.56 972.782 1819.14 973.833C1819.01 973.101 1818.75 972.397 1818.4 971.744Z" fill="#92BFB1"/>
</svg>
